<svg xmlns="http://www.w3.org/2000/svg" viewBox="0 0 128 129" width="24" height="24">
	<defs>
		<linearGradient id="grd1" gradientUnits="userSpaceOnUse"  x1="63.99" y1="2.21" x2="63.99" y2="126.92">
			<stop offset="0" stop-color="#fe365d"  />
			<stop offset="1" stop-color="#931aa2"  />
		</linearGradient>
		<linearGradient id="grd2" gradientUnits="userSpaceOnUse"  x1="1342.861" y1="1383.427" x2="1342.861" y2="2108.945">
			<stop offset="0" stop-color="#fe365d"  />
			<stop offset="1" stop-color="#931aa2"  />
		</linearGradient>
	</defs>
	<style>
		tspan { white-space:pre }
		.shp0 { fill: url(#grd1) } 
		.shp1 { fill: url(#grd2) } 
	</style>
	<path id="Layer" fill-rule="evenodd" class="shp0" d="M64 2.21C72.19 2.21 80.3 3.82 87.86 6.95C95.43 10.09 102.3 14.68 108.09 20.47C113.89 26.26 118.48 33.13 121.61 40.7C124.75 48.26 126.36 56.37 126.36 64.56C126.36 89.78 111.17 112.52 87.87 122.18C64.57 131.84 37.75 126.5 19.91 108.67C2.07 90.83 -3.27 64.01 6.39 40.71C16.04 17.4 38.78 2.21 64 2.21ZM64 28.93C59.32 28.93 54.69 29.86 50.37 31.65C46.05 33.44 42.12 36.07 38.81 39.37C35.5 42.68 32.88 46.61 31.08 50.93C29.29 55.25 28.37 59.88 28.36 64.56C28.36 78.98 37.04 91.97 50.35 97.49C63.67 103.01 79 99.97 89.2 89.77C99.39 79.58 102.44 64.25 96.93 50.93C91.41 37.61 78.42 28.93 64 28.93Z" />
	<path id="Layer" class="shp1" d="M75.41 60.76L62.13 50.25C61.69 49.91 61.16 49.71 60.61 49.65C60.06 49.59 59.5 49.69 59 49.93C58.5 50.17 58.08 50.55 57.78 51.02C57.48 51.48 57.32 52.03 57.31 52.58L57.31 73.58C57.32 74.13 57.48 74.68 57.78 75.14C58.08 75.61 58.5 75.99 59 76.23C59.5 76.47 60.06 76.57 60.61 76.51C61.16 76.45 61.69 76.25 62.13 75.91L75.41 65.42C75.76 65.14 76.04 64.78 76.23 64.38C76.42 63.98 76.52 63.54 76.52 63.09C76.52 62.64 76.42 62.2 76.23 61.8C76.04 61.4 75.76 61.04 75.41 60.76Z" />
</svg>