<svg xmlns="http://www.w3.org/2000/svg" viewBox="0 0 128 129" width="24" height="24">
	<defs>
		<linearGradient id="grd1" gradientUnits="userSpaceOnUse"  x1="21.86" y1="48.81" x2="21.86" y2="79.6">
			<stop offset="0" stop-color="#fe365d"  />
			<stop offset="1" stop-color="#931aa2"  />
		</linearGradient>
		<linearGradient id="grd2" gradientUnits="userSpaceOnUse"  x1="4725.95" y1="1552.209" x2="4725.95" y2="2500.58">
			<stop offset="0" stop-color="#fe365d"  />
			<stop offset="1" stop-color="#931aa2"  />
		</linearGradient>
		<linearGradient id="grd3" gradientUnits="userSpaceOnUse"  x1="2048.689" y1="1578.806" x2="2048.689" y2="2555.682">
			<stop offset="0" stop-color="#fe365d"  />
			<stop offset="1" stop-color="#931aa2"  />
		</linearGradient>
		<linearGradient id="grd4" gradientUnits="userSpaceOnUse"  x1="374.968" y1="471.349" x2="374.968" y2="517.051">
			<stop offset="0" stop-color="#fe365d"  />
			<stop offset="1" stop-color="#931aa2"  />
		</linearGradient>
	</defs>
	<style>
		tspan { white-space:pre }
		.shp0 { fill: url(#grd1) } 
		.shp1 { fill: url(#grd2) } 
		.shp2 { fill: url(#grd3) } 
		.shp3 { fill: url(#grd4) } 
	</style>
	<path id="Layer" class="shp0" d="M41.86 79.6C39.86 79.6 38.37 79.14 37.49 78.21C37.25 77.93 37.05 77.63 36.87 77.31C36.69 76.98 36.55 76.65 36.43 76.3C36.32 75.95 36.24 75.59 36.2 75.23C36.15 74.86 36.14 74.5 36.17 74.13L36.17 62.52C36.17 60.03 35.67 58.22 34.67 57.11C34.42 56.83 34.14 56.58 33.83 56.37C33.53 56.15 33.2 55.97 32.86 55.82C32.51 55.68 32.15 55.57 31.79 55.51C31.42 55.44 31.04 55.41 30.67 55.43C30.33 55.42 29.98 55.44 29.64 55.51C29.31 55.57 28.98 55.67 28.66 55.81C28.34 55.94 28.04 56.11 27.76 56.31C27.49 56.51 27.23 56.74 27 57C26.74 57.33 26.52 57.68 26.33 58.06C26.13 58.43 25.98 58.82 25.86 59.22C25.74 59.62 25.65 60.03 25.61 60.45C25.56 60.86 25.56 61.28 25.59 61.7L25.59 79.6L23.59 79.6C23.23 79.62 22.87 79.61 22.51 79.56C22.15 79.51 21.79 79.42 21.45 79.3C21.11 79.18 20.78 79.03 20.47 78.85C20.15 78.66 19.86 78.45 19.59 78.21C19.33 77.94 19.1 77.65 18.91 77.33C18.71 77.01 18.55 76.68 18.42 76.33C18.3 75.98 18.21 75.61 18.16 75.24C18.11 74.87 18.09 74.5 18.12 74.13L18.12 62.52C18.12 60.03 17.6 58.22 16.58 57.11C16.33 56.84 16.04 56.59 15.74 56.38C15.43 56.16 15.11 55.98 14.76 55.84C14.42 55.69 14.06 55.58 13.69 55.52C13.33 55.45 12.95 55.42 12.58 55.43C12.24 55.42 11.89 55.46 11.56 55.53C11.22 55.6 10.89 55.7 10.58 55.85C10.27 55.99 9.97 56.16 9.7 56.37C9.42 56.58 9.17 56.82 8.95 57.08C8.69 57.42 8.46 57.78 8.27 58.16C8.08 58.54 7.92 58.93 7.79 59.34C7.67 59.75 7.59 60.16 7.54 60.59C7.49 61.01 7.48 61.44 7.51 61.86L7.51 79.6L5.51 79.6C5.16 79.61 4.8 79.59 4.46 79.53C4.11 79.48 3.77 79.39 3.43 79.27C3.1 79.15 2.78 79 2.48 78.82C2.18 78.64 1.89 78.43 1.63 78.19C1.36 77.93 1.11 77.64 0.9 77.33C0.69 77.02 0.51 76.69 0.37 76.34C0.23 75.99 0.13 75.63 0.07 75.25C0 74.88 -0.02 74.51 0 74.13L0 62.46C-0.01 61.99 0.01 61.52 0.04 61.05C0.07 60.58 0.12 60.11 0.19 59.64C0.26 59.18 0.34 58.71 0.45 58.25C0.56 57.79 0.68 57.34 0.82 56.89C0.94 56.49 1.09 56.1 1.26 55.71C1.43 55.32 1.61 54.95 1.82 54.58C2.03 54.22 2.26 53.87 2.51 53.53C2.75 53.19 3.02 52.86 3.3 52.55C3.59 52.24 3.9 51.95 4.22 51.68C4.54 51.41 4.88 51.15 5.23 50.92C5.58 50.68 5.95 50.47 6.32 50.28C6.7 50.09 7.08 49.92 7.48 49.77C7.95 49.6 8.43 49.45 8.92 49.32C9.41 49.19 9.9 49.08 10.4 49C10.9 48.92 11.4 48.85 11.9 48.82C12.4 48.78 12.91 48.76 13.41 48.77C13.86 48.76 14.32 48.78 14.77 48.83C15.22 48.88 15.66 48.95 16.11 49.06C16.55 49.16 16.98 49.3 17.4 49.46C17.83 49.62 18.24 49.81 18.64 50.02C19.02 50.23 19.4 50.46 19.76 50.71C20.11 50.97 20.46 51.24 20.79 51.52C21.12 51.81 21.43 52.12 21.73 52.44C22.03 52.76 22.31 53.1 22.57 53.45C22.79 53.09 23.03 52.75 23.29 52.43C23.55 52.1 23.83 51.8 24.14 51.51C24.44 51.22 24.76 50.96 25.1 50.71C25.44 50.47 25.79 50.25 26.16 50.05C26.54 49.84 26.94 49.65 27.35 49.49C27.76 49.33 28.18 49.19 28.6 49.08C29.03 48.97 29.46 48.89 29.9 48.84C30.33 48.79 30.77 48.77 31.21 48.77C31.62 48.77 32.03 48.78 32.44 48.81C32.85 48.85 33.26 48.89 33.67 48.96C34.07 49.02 34.48 49.1 34.87 49.2C35.27 49.3 35.67 49.41 36.06 49.54C36.82 49.79 37.55 50.13 38.23 50.55C38.92 50.96 39.56 51.45 40.13 52.01C40.71 52.57 41.22 53.19 41.65 53.86C42.09 54.53 42.45 55.25 42.73 56C42.9 56.44 43.05 56.89 43.18 57.35C43.31 57.8 43.42 58.26 43.5 58.73C43.59 59.2 43.65 59.67 43.69 60.14C43.72 60.61 43.74 61.09 43.73 61.56L43.73 79.6L41.86 79.6Z" />
	<path id="Layer" class="shp1" d="M128 48.81L128 66.9C128.01 67.37 127.99 67.85 127.95 68.32C127.92 68.79 127.85 69.26 127.77 69.73C127.69 70.19 127.58 70.66 127.45 71.11C127.32 71.57 127.17 72.02 127 72.46C126.85 72.84 126.68 73.2 126.49 73.56C126.3 73.92 126.1 74.27 125.87 74.61C125.65 74.94 125.4 75.26 125.14 75.57C124.88 75.88 124.6 76.18 124.31 76.46C124.02 76.73 123.72 76.98 123.41 77.21C123.1 77.45 122.77 77.66 122.44 77.86C122.1 78.06 121.76 78.24 121.4 78.4C121.04 78.56 120.68 78.71 120.31 78.83C119.92 78.96 119.52 79.07 119.13 79.17C118.73 79.27 118.32 79.35 117.92 79.42C117.51 79.48 117.1 79.53 116.69 79.56C116.28 79.59 115.87 79.6 115.46 79.6C115.02 79.6 114.59 79.58 114.16 79.52C113.73 79.47 113.3 79.39 112.88 79.28C112.46 79.17 112.04 79.04 111.64 78.88C111.23 78.72 110.84 78.53 110.46 78.32C110.09 78.12 109.74 77.9 109.4 77.66C109.06 77.42 108.74 77.15 108.43 76.86C108.13 76.58 107.84 76.27 107.58 75.94C107.32 75.62 107.08 75.28 106.86 74.92C106.6 75.27 106.32 75.61 106.02 75.93C105.73 76.25 105.41 76.56 105.08 76.84C104.75 77.13 104.41 77.4 104.05 77.65C103.69 77.91 103.32 78.14 102.94 78.35C102.54 78.56 102.13 78.75 101.7 78.91C101.28 79.07 100.84 79.21 100.4 79.31C99.96 79.42 99.51 79.49 99.06 79.54C98.61 79.59 98.15 79.61 97.7 79.6C97.2 79.61 96.69 79.59 96.19 79.55C95.69 79.52 95.19 79.45 94.69 79.37C94.2 79.29 93.71 79.18 93.22 79.05C92.73 78.92 92.25 78.77 91.78 78.6C91.38 78.45 91 78.28 90.62 78.09C90.24 77.9 89.88 77.69 89.52 77.45C89.17 77.22 88.83 76.96 88.51 76.69C88.19 76.42 87.88 76.13 87.59 75.82C87.31 75.51 87.04 75.18 86.8 74.84C86.55 74.5 86.32 74.15 86.12 73.78C85.91 73.42 85.72 73.04 85.55 72.66C85.38 72.27 85.24 71.88 85.11 71.48C84.97 71.04 84.85 70.59 84.75 70.14C84.64 69.69 84.55 69.23 84.48 68.77C84.42 68.31 84.36 67.85 84.33 67.39C84.29 66.93 84.28 66.46 84.28 66L84.28 54.28C84.26 53.91 84.27 53.53 84.33 53.16C84.39 52.8 84.48 52.43 84.61 52.08C84.75 51.74 84.91 51.4 85.12 51.09C85.32 50.77 85.56 50.48 85.82 50.22C86.08 49.98 86.37 49.77 86.67 49.59C86.98 49.41 87.3 49.26 87.63 49.14C87.96 49.02 88.3 48.93 88.65 48.87C89 48.82 89.36 48.8 89.71 48.81L91.71 48.81L91.71 66.55C91.68 66.97 91.69 67.4 91.74 67.82C91.79 68.25 91.87 68.67 92 69.07C92.12 69.48 92.28 69.88 92.48 70.25C92.67 70.63 92.9 70.99 93.16 71.33C93.38 71.6 93.63 71.84 93.9 72.05C94.18 72.26 94.47 72.43 94.78 72.58C95.1 72.72 95.43 72.83 95.76 72.9C96.1 72.97 96.45 73.01 96.79 73C97.16 73.01 97.54 72.98 97.9 72.91C98.27 72.85 98.63 72.74 98.97 72.6C99.31 72.45 99.64 72.27 99.95 72.06C100.25 71.85 100.54 71.6 100.79 71.33C101.79 70.21 102.33 68.4 102.33 65.92L102.33 54.28C102.3 53.91 102.32 53.54 102.37 53.17C102.42 52.8 102.51 52.43 102.63 52.08C102.76 51.73 102.92 51.4 103.12 51.08C103.31 50.76 103.54 50.47 103.8 50.2C104.07 49.96 104.36 49.75 104.68 49.56C104.99 49.38 105.32 49.23 105.66 49.11C106 48.99 106.36 48.9 106.72 48.85C107.08 48.8 107.44 48.79 107.8 48.81L109.8 48.81L109.8 66.71C109.77 67.13 109.78 67.55 109.82 67.96C109.86 68.38 109.95 68.79 110.07 69.19C110.19 69.59 110.34 69.98 110.53 70.35C110.72 70.72 110.95 71.08 111.2 71.41C111.44 71.68 111.7 71.92 111.99 72.12C112.28 72.33 112.59 72.5 112.92 72.64C113.25 72.78 113.59 72.88 113.94 72.94C114.29 73 114.64 73.02 115 73C115.37 73.02 115.75 72.99 116.11 72.92C116.48 72.86 116.84 72.75 117.19 72.61C117.53 72.47 117.86 72.28 118.16 72.07C118.47 71.85 118.75 71.61 119 71.33C120 70.21 120.5 68.4 120.5 65.92L120.5 54.28C120.47 53.91 120.48 53.55 120.53 53.18C120.57 52.82 120.65 52.46 120.76 52.11C120.88 51.76 121.02 51.43 121.2 51.1C121.38 50.78 121.58 50.48 121.82 50.2C122.7 49.27 124.16 48.81 126.2 48.81L128 48.81Z" />
	<path id="Layer" fill-rule="evenodd" class="shp2" d="M64 48.94C66.05 48.94 68.08 49.34 69.98 50.13C71.87 50.91 73.59 52.06 75.05 53.51C76.5 54.97 77.65 56.69 78.43 58.58C79.22 60.48 79.62 62.51 79.62 64.56C79.62 70.88 75.82 76.59 69.98 79.01C64.13 81.43 57.41 80.09 52.94 75.62C48.47 71.15 47.13 64.43 49.55 58.58C51.97 52.74 57.68 48.94 64 48.94ZM64 55.63C62.83 55.63 61.67 55.86 60.58 56.31C59.5 56.76 58.52 57.42 57.69 58.25C56.86 59.08 56.2 60.06 55.75 61.14C55.3 62.23 55.07 63.39 55.07 64.56C55.07 68.18 57.24 71.44 60.58 72.83C63.93 74.21 67.77 73.45 70.33 70.89C72.89 68.33 73.65 64.49 72.27 61.14C70.88 57.8 67.62 55.63 64 55.63Z" />
	<path id="Layer" class="shp3" d="M66.85 63.61L63.52 61C63.41 60.91 63.28 60.86 63.14 60.84C63 60.83 62.86 60.85 62.74 60.91C62.61 60.97 62.51 61.07 62.43 61.19C62.36 61.3 62.32 61.44 62.32 61.58L62.32 66.85C62.32 66.99 62.36 67.13 62.43 67.24C62.51 67.36 62.61 67.46 62.74 67.52C62.86 67.58 63 67.6 63.14 67.59C63.28 67.57 63.41 67.52 63.52 67.43L66.85 64.8C66.94 64.73 67.02 64.64 67.07 64.54C67.12 64.43 67.15 64.32 67.15 64.2C67.15 64.09 67.12 63.98 67.07 63.87C67.02 63.77 66.94 63.68 66.85 63.61L66.85 63.61Z" />
</svg>